# xmcd
#
# Track frame offsets:
# 150
# 12802
# 22837
# 33470
# 46528
# 67082
# 85347
# 93913
# 108652
# 115074
# 127271
# 139871
# 152700
# 160980
# 172534
# 180989
#
# Disc length: 2603 seconds
#
#
# Revision: 0
# Processed by: cddbd v1.5.2PL0 Copyright (c) Steve Scherf et al.
# Submitted via: FreeRIP 2.60 
#
DISCID=c00a2910
DTITLE=The New York Howl - People Will Come To See Us Ride
DYEAR=1900
DGENRE=blues
TTITLE0=If We Can't Get It Right Now
TTITLE1=Oh Bury Me Not
TTITLE2=Signal To Noise
TTITLE3=Critters
TTITLE4=Black Stallion
TTITLE5=Thank You
TTITLE6=Where Do You Go
TTITLE7=Insane
TTITLE8=Quit That Shit
TTITLE9=Devil
TTITLE10=Time Machine
TTITLE11=Broke My Heart
TTITLE12=Set Your Guns To Stun
TTITLE13=The Look Around
TTITLE14=Disposable Thumbs
TTITLE15=Gasoline
EXTD=
EXTT0=
EXTT1=
EXTT2=
EXTT3=
EXTT4=
EXTT5=
EXTT6=
EXTT7=
EXTT8=
EXTT9=
EXTT10=
EXTT11=
EXTT12=
EXTT13=
EXTT14=
EXTT15=
PLAYORDER=
